<?xml version="1.0" encoding="utf-8"?>
<!-- Generator: Adobe Illustrator 19.1.0, SVG Export Plug-In . SVG Version: 6.00 Build 0)  -->
<svg version="1.1" id="Layer_1" xmlns="http://www.w3.org/2000/svg" xmlns:xlink="http://www.w3.org/1999/xlink" x="0px" y="0px"
	 viewBox="-179 -20 600 600" style="enable-background:new -179 -20 600 600;" xml:space="preserve">
<style type="text/css">
	.st0{fill:#0582C1;}
	.st1{fill:#035E82;}
	.st2{fill:#A6A8AB;}
	.st3{fill:#FFFFFF;}
	.st4{fill:#FAAF40;}
	.st5{fill:#29B473;}
</style>
<g>
	<g>
		<g>
			<g>
				<g>
					<g>
						<g>
							<rect x="101.5" y="113.8" class="st0" width="39.1" height="389.6"/>
						</g>
					</g>
				</g>
			</g>
		</g>
	</g>
	<g>
		<g>
			<g>
				<g>
					<g>
						<g>
							<path class="st0" d="M258.8,509c0,10.8-8.8,19.5-19.5,19.5H2.8c-10.8,0-19.5-8.8-19.5-19.5l0,0c0-10.8,8.7-19.5,19.5-19.5
								h236.5C250,489.5,258.8,498.3,258.8,509L258.8,509z"/>
						</g>
					</g>
				</g>
			</g>
		</g>
	</g>
	<g>
		<g>
			<g>
				<g>
					<g>
						<g>
							<path class="st1" d="M140.5,446.5c-6.2-1.9-12.8-3-19.5-3c-6.8,0-13.4,1-19.5,3v56.9h39.1V446.5z"/>
						</g>
					</g>
				</g>
			</g>
		</g>
	</g>
	<g>
		<g>
			<g>
				<g>
					<g>
						<g>
							<path class="st1" d="M55.5,509c0,6.8,1,13.4,3,19.5h125c1.9-6.2,3-12.7,3-19.5c0-6.8-1-13.3-3-19.5h-125
								C56.6,495.7,55.5,502.2,55.5,509z"/>
						</g>
					</g>
				</g>
			</g>
		</g>
	</g>
	<g>
		<g>
			<g>
				<g>
					<g>
						<g>
							<path class="st0" d="M166,509c0,24.8-20.1,45-44.9,45c-24.8,0-45-20.1-45-45c0-24.8,20.2-45,45-45
								C145.8,464.1,166,484.2,166,509z"/>
						</g>
					</g>
				</g>
			</g>
		</g>
	</g>
	<g>
		<g>
			<g>
				<g>
					<g>
						<g>
							<rect x="101.5" y="113.8" class="st1" width="39.1" height="19"/>
						</g>
					</g>
				</g>
			</g>
		</g>
	</g>
	<g>
		<g>
			<g>
				<g>
					<g>
						<g>
							<rect x="101.5" y="259" class="st1" width="39.1" height="19"/>
						</g>
					</g>
				</g>
			</g>
		</g>
	</g>
	<g>
		<g>
			<g>
				<g>
					<g>
						<g>
							<rect x="101.5" y="402.6" class="st1" width="39.1" height="19"/>
						</g>
					</g>
				</g>
			</g>
		</g>
	</g>
	<g>
		<g>
			<g>
				<g>
					<g>
						<g>
							<path class="st2" d="M-37.7,4C-43.4,4-48,8.6-48,14.3v89.2c0,5.7,4.6,10.3,10.3,10.3h317.5c5.7,0,10.3-4.6,10.3-10.3V14.3
								C290,8.6,285.4,4,279.7,4H-37.7z"/>
						</g>
					</g>
				</g>
			</g>
		</g>
	</g>
	<g>
		<g>
			<g>
				<g>
					<g>
						<g>
							<rect x="-16" y="25.4" class="st3" width="16.7" height="66.9"/>
						</g>
					</g>
				</g>
			</g>
		</g>
	</g>
	<g>
		<g>
			<g>
				<g>
					<g>
						<g>
							<polygon class="st3" points="40.6,25.4 40.6,92.3 23.8,92.4 23.8,25.4 							"/>
						</g>
					</g>
				</g>
			</g>
		</g>
	</g>
	<g>
		<g>
			<g>
				<g>
					<g>
						<g>
							<polygon class="st3" points="80.5,25.4 80.5,92.3 63.7,92.4 63.7,25.4 							"/>
						</g>
					</g>
				</g>
			</g>
		</g>
	</g>
	<g>
		<g>
			<g>
				<g>
					<g>
						<g>
							<path class="st2" d="M-37.7,148.4c-5.7,0-10.3,4.6-10.3,10.3v89.2c0,5.7,4.6,10.3,10.3,10.3h317.5c5.7,0,10.3-4.6,10.3-10.3
								v-89.2c0-5.7-4.6-10.3-10.3-10.3H-37.7z"/>
						</g>
					</g>
				</g>
			</g>
		</g>
	</g>
	<g>
		<g>
			<g>
				<g>
					<g>
						<g>
							<polygon class="st3" points="0.7,169.8 0.7,236.7 -16,236.7 -16,169.9 							"/>
						</g>
					</g>
				</g>
			</g>
		</g>
	</g>
	<g>
		<g>
			<g>
				<g>
					<g>
						<g>
							<polygon class="st3" points="40.6,169.8 40.6,236.7 23.8,236.7 23.8,169.8 							"/>
						</g>
					</g>
				</g>
			</g>
		</g>
	</g>
	<g>
		<g>
			<g>
				<g>
					<g>
						<g>
							<rect x="63.7" y="169.8" class="st3" width="16.7" height="66.9"/>
						</g>
					</g>
				</g>
			</g>
		</g>
	</g>
	<g>
		<g>
			<g>
				<g>
					<g>
						<g>
							<path class="st2" d="M-37.7,292.8c-5.7,0-10.3,4.6-10.3,10.3v89.2c0,5.7,4.6,10.3,10.3,10.3h317.5c5.7,0,10.3-4.6,10.3-10.3
								v-89.2c0-5.6-4.6-10.3-10.3-10.3H-37.7z"/>
						</g>
					</g>
				</g>
			</g>
		</g>
	</g>
	<g>
		<g>
			<g>
				<g>
					<g>
						<g>
							<polygon class="st3" points="0.7,314.2 0.7,381.1 -16,381.1 -16,314.2 							"/>
						</g>
					</g>
				</g>
			</g>
		</g>
	</g>
	<g>
		<g>
			<g>
				<g>
					<g>
						<g>
							<polygon class="st3" points="40.6,314.2 40.6,381.1 23.8,381.1 23.8,314.2 							"/>
						</g>
					</g>
				</g>
			</g>
		</g>
	</g>
	<g>
		<g>
			<g>
				<g>
					<g>
						<g>
							<rect x="63.7" y="314.2" class="st3" width="16.7" height="66.9"/>
						</g>
					</g>
				</g>
			</g>
		</g>
	</g>
	<g>
		<g>
			<g>
				<g>
					<g>
						<g>
							<path class="st4" d="M265.1,58.9c0,8.9-7.2,16.2-16.1,16.2c-8.9,0-16.2-7.2-16.2-16.2S240,42.7,249,42.7
								C257.9,42.7,265.1,50,265.1,58.9z"/>
						</g>
					</g>
				</g>
			</g>
		</g>
	</g>
	<g>
		<g>
			<g>
				<g>
					<g>
						<g>
							<path class="st5" d="M208,58.9c0,8.9-7.2,16.2-16.1,16.2c-8.9,0-16.2-7.2-16.2-16.2s7.2-16.2,16.2-16.2
								C200.8,42.7,208,50,208,58.9z"/>
						</g>
					</g>
				</g>
			</g>
		</g>
	</g>
	<g>
		<g>
			<g>
				<g>
					<g>
						<g>
							<path class="st4" d="M265.1,213.6c0,8.9-7.2,16.2-16.1,16.2c-8.9,0-16.2-7.2-16.2-16.2s7.2-16.2,16.2-16.2
								C257.9,197.4,265.1,204.7,265.1,213.6z"/>
						</g>
					</g>
				</g>
			</g>
		</g>
	</g>
	<g>
		<g>
			<g>
				<g>
					<g>
						<g>
							<path class="st5" d="M208,213.6c0,8.9-7.2,16.2-16.1,16.2c-8.9,0-16.2-7.2-16.2-16.2s7.2-16.2,16.2-16.2
								C200.8,197.4,208,204.7,208,213.6z"/>
						</g>
					</g>
				</g>
			</g>
		</g>
	</g>
	<g>
		<g>
			<g>
				<g>
					<g>
						<g>
							<path class="st4" d="M265.1,347.7c0,8.9-7.2,16.1-16.1,16.1c-8.9,0-16.2-7.2-16.2-16.1c0-8.9,7.2-16.1,16.2-16.1
								C257.9,331.5,265.1,338.8,265.1,347.7z"/>
						</g>
					</g>
				</g>
			</g>
		</g>
	</g>
	<g>
		<g>
			<g>
				<g>
					<g>
						<g>
							<path class="st5" d="M208,347.7c0,8.9-7.2,16.1-16.1,16.1c-8.9,0-16.2-7.2-16.2-16.1c0-8.9,7.2-16.1,16.2-16.1
								C200.8,331.5,208,338.8,208,347.7z"/>
						</g>
					</g>
				</g>
			</g>
		</g>
	</g>
</g>
</svg>
