<?xml version="1.0" encoding="utf-8"?>
<!-- Generator: Adobe Illustrator 19.1.0, SVG Export Plug-In . SVG Version: 6.00 Build 0)  -->
<svg version="1.1" id="Layer_1" xmlns="http://www.w3.org/2000/svg" xmlns:xlink="http://www.w3.org/1999/xlink" x="0px" y="0px"
	 viewBox="0 0 600 600" style="enable-background:new 0 0 600 600;" xml:space="preserve">
<style type="text/css">
	.st0{fill:#005E9B;}
	.st1{fill:#0083C2;}
	.st2{fill:#CFD8DC;}
	.st3{fill:#ECEFF1;}
	.st4{fill:#263238;}
	.st5{fill:#37474F;}
</style>
<rect x="282.7" y="122" transform="matrix(0.7071 -0.7071 0.7071 0.7071 -121.963 306.763)" class="st0" width="53.3" height="357.3"/>
<polygon class="st1" points="183,174.3 164.2,193.2 416.8,445.8 433.5,424.8 "/>
<g>
	<path class="st2" d="M483.9,566.3l-35.5-69.6l57-57l69.6,35.5c0.4-21.6-7.3-42.9-23.3-58.9c-32.7-32.7-87.5-30.8-122.5,4.2
		c-35,35-36.9,89.8-4.2,122.5C441,558.9,462.2,566.6,483.9,566.3z"/>
	<path class="st3" d="M407.4,454.2c-11.5,30.7-5.8,65.4,17.6,88.7c16,16,37.2,23.6,58.8,23.3l-35.5-69.6l28.5-28.5l-35.6-35.6
		l-12.1-12.1C419.3,430.5,412,442,407.4,454.2z"/>
</g>
<g>
	<path class="st2" d="M133.6,33.7l35.5,69.6l-57,57l-69.6-35.5c-0.4,21.6,7.3,42.9,23.3,58.8c32.7,32.7,87.5,30.8,122.5-4.2
		c35-35,36.9-89.8,4.2-122.5C176.5,41.1,155.2,33.4,133.6,33.7z"/>
	<path class="st3" d="M112.1,160.3l-69.6-35.5c-0.4,21.6,7.3,42.9,23.3,58.8c23.4,23.4,58.1,29,88.7,17.6
		c12.2-4.6,23.8-11.8,33.7-21.8c0,0,0,0,0,0l-29.8-29.8l-17.9-17.9L112.1,160.3z"/>
</g>
<g>
	<polygon class="st3" points="462.8,82.4 422.9,122.3 423.2,145.6 423.2,145.6 423.2,145.6 215,353.8 230.1,368.8 438.3,160.7 
		438.3,160.7 438.3,160.7 461.9,160.7 501.5,121.1 	"/>
	<polygon class="st2" points="482.1,101.7 462.8,82.4 422.9,122.3 423.2,145.6 215,353.8 222.6,361.3 	"/>
	<g>
		<path class="st4" d="M247.6,377.4c8.7-0.3,19.3-4.1,25.9-10.7l-57.1-57.1c-6.6,6.6-10.4,17.1-10.7,25.9
			c-8.1,0.9-17.5,5.3-23.8,11.6L39.7,489.3c-10.6,10.6-19.2,33.6-12.1,40.7l25.5,25.5c7.1,7.1,30.1-1.5,40.7-12.1l142.3-142.3
			C242.4,394.9,246.7,385.5,247.6,377.4z"/>
		<path class="st5" d="M216.4,309.7c-6.6,6.6-10.4,17.1-10.7,25.9c-8.1,0.9-17.5,5.3-23.8,11.6L39.7,489.3
			c-10.6,10.6-19.2,33.6-12.1,40.7l12.8,12.8L245,338.2L216.4,309.7z"/>
	</g>
</g>
</svg>
