<?xml version="1.0" encoding="utf-8"?>
<!-- Generator: Adobe Illustrator 19.1.0, SVG Export Plug-In . SVG Version: 6.00 Build 0)  -->
<svg version="1.1" id="Layer_1" xmlns="http://www.w3.org/2000/svg" xmlns:xlink="http://www.w3.org/1999/xlink" x="0px" y="0px"
	 viewBox="0 0 600 600" style="enable-background:new 0 0 600 600;" xml:space="preserve">
<style type="text/css">
	.st0{fill:#0083C2;}
	.st1{fill:#FFFFFF;}
	.st2{fill:#353F49;}
	.st3{fill:#CCCBCA;}
	.st4{fill:#76D0DE;}
	.st5{fill:#F2F2F2;}
	.st6{fill:#474F59;}
	.st7{fill:#E6E5E5;}
</style>
<path class="st0" d="M554.6,295.5c0,140.6-114,254.6-254.6,254.6S45.4,436.2,45.4,295.5S159.4,40.9,300,40.9
	S554.6,154.9,554.6,295.5z"/>
<g>
	<g>
		<rect x="295.7" y="481.1" class="st1" width="8.6" height="51.9"/>
		<path class="st2" d="M300,525.4c-13.7,0-24.8,11.1-24.8,24.8c0,13.7,11.1,24.8,24.8,24.8c13.7,0,24.8-11.1,24.8-24.8
			C324.8,536.5,313.7,525.4,300,525.4z M300,564.3c-7.9,0-14.2-6.3-14.2-14.2c0-7.8,6.3-14.2,14.2-14.2c7.8,0,14.2,6.4,14.2,14.2
			C314.2,558,307.8,564.3,300,564.3z"/>
	</g>
	<polygon class="st1" points="413.7,108.8 300,45.9 186.3,108.8 182.2,101.2 300,36 417.8,101.2 	"/>
	<rect x="77.6" y="138.6" class="st1" width="444.8" height="326.2"/>
	<g>
		<g>
			<rect x="108.7" y="163.9" class="st3" width="83.5" height="7.4"/>
			<rect x="108.7" y="180.2" class="st3" width="67.5" height="7.4"/>
			<rect x="108.7" y="196.6" class="st3" width="134.9" height="7.3"/>
			<rect x="108.7" y="212.9" class="st3" width="58.9" height="7.4"/>
			<rect x="108.7" y="229.2" class="st3" width="81.3" height="7.4"/>
			<rect x="108.7" y="245.6" class="st3" width="92.7" height="7.4"/>
			<rect x="108.7" y="261.9" class="st3" width="121.7" height="7.3"/>
			<rect x="108.7" y="278.3" class="st3" width="41.7" height="7.3"/>
		</g>
		<g>
			<rect x="288.2" y="317.6" class="st3" width="92.6" height="7.4"/>
			<rect x="288.2" y="333.9" class="st3" width="202.9" height="7.4"/>
			<rect x="288.2" y="350.3" class="st3" width="163.5" height="7.4"/>
			<rect x="288.2" y="366.6" class="st3" width="134.4" height="7.4"/>
			<rect x="288.2" y="382.9" class="st3" width="176.1" height="7.4"/>
			<rect x="288.2" y="399.3" class="st3" width="104.9" height="7.3"/>
			<rect x="288.2" y="415.6" class="st3" width="155.3" height="7.4"/>
			<rect x="288.2" y="432" class="st3" width="163.5" height="7.4"/>
		</g>
		<g>
			<polygon class="st4" points="471.3,185.5 461.7,189.7 452.1,208.6 442.5,210.2 432.8,214.9 423.2,215.6 412.1,201.1 404,218.8 
				394.4,225.1 384.8,217.3 375.2,224.1 365.6,227.1 355.9,245.6 346.3,254.1 336.8,242.3 327.1,238.3 317.5,255.3 307.9,251.6 
				298.2,261.4 288.3,264.2 288.3,285.5 491.3,285.6 491.3,169.3 480.9,170.9 			"/>
			<polygon class="st5" points="471.3,223.2 461.7,225.8 452.1,237.5 442.5,238.6 432.8,243.3 423.2,242 412.1,236.8 404,243.9 
				394.4,247.9 384.8,243 375.2,247.2 365.6,249.1 355.9,260.7 346.3,266 336.8,258.6 327.1,256.1 317.5,266.8 307.9,264.5 
				298.2,270.5 288.3,272.2 288.3,285.6 491.3,285.6 491.3,212.7 480.9,214 			"/>
			<polygon class="st6" points="471.3,257.1 461.7,258.2 452.1,263.6 442.5,264 432.8,267.7 423.2,265.7 412.1,261.5 404,266.6 
				394.4,268.3 384.8,266.2 375.2,268.1 365.6,269 355.9,274.2 346.3,276.7 336.8,273.3 327.1,272.1 317.5,277 307.9,275.9 
				298.2,278.7 288.3,279.5 288.3,285.6 491.3,285.6 491.3,245.9 480.9,256.4 			"/>
		</g>
		<g>
			<path class="st6" d="M204.1,378.6c0,9.5-3.8,18.1-10.1,24.3l18.6,18.7c10.9-10.9,17.9-26.2,17.9-43H204.1z"/>
			<path class="st7" d="M169.6,317.6v26.4c19,0,34.5,15.4,34.5,34.5h26.5C230.6,344.9,203.3,317.6,169.6,317.6z"/>
			<path class="st4" d="M194.1,402.9c-6.3,6.3-14.9,10.2-24.4,10.2c-19,0-34.5-15.5-34.5-34.5c0-19.1,15.5-34.5,34.5-34.5v-26.4
				c-33.6,0-60.9,27.3-60.9,60.9c0,33.6,27.3,60.8,60.9,60.8c16.9,0,32.1-6.8,43.1-17.9L194.1,402.9z"/>
		</g>
	</g>
	<g>
		<g>
			<rect x="58.2" y="97.8" class="st2" width="483.7" height="40.8"/>
			<rect x="58.2" y="464.7" class="st2" width="483.7" height="16.4"/>
		</g>
	</g>
	<path class="st2" d="M315.9,40.9c0,8.8-7.1,15.9-15.9,15.9s-15.9-7.1-15.9-15.9S291.2,25,300,25S315.9,32.1,315.9,40.9z"/>
</g>
</svg>
