<?xml version="1.0" encoding="UTF-8" standalone="no"?>
<!-- Generator: Adobe Illustrator 19.1.0, SVG Export Plug-In . SVG Version: 6.00 Build 0)  -->

<svg
   xmlns:dc="http://purl.org/dc/elements/1.1/"
   xmlns:cc="http://creativecommons.org/ns#"
   xmlns:rdf="http://www.w3.org/1999/02/22-rdf-syntax-ns#"
   xmlns:svg="http://www.w3.org/2000/svg"
   xmlns="http://www.w3.org/2000/svg"
   xmlns:sodipodi="http://sodipodi.sourceforge.net/DTD/sodipodi-0.dtd"
   xmlns:inkscape="http://www.inkscape.org/namespaces/inkscape"
   version="1.1"
   id="Layer_1"
   x="0px"
   y="0px"
   viewBox="0 0 600 600"
   style="enable-background:new 0 0 600 600;"
   xml:space="preserve"
   inkscape:version="0.92.4 (unknown)"
   sodipodi:docname="img-custportal.svg"><metadata
   id="metadata14395"><rdf:RDF><cc:Work
       rdf:about=""><dc:format>image/svg+xml</dc:format><dc:type
         rdf:resource="http://purl.org/dc/dcmitype/StillImage" /><dc:title /></cc:Work></rdf:RDF></metadata><defs
   id="defs14393" /><sodipodi:namedview
   pagecolor="#ffffff"
   bordercolor="#666666"
   borderopacity="1"
   objecttolerance="10"
   gridtolerance="10"
   guidetolerance="10"
   inkscape:pageopacity="0"
   inkscape:pageshadow="2"
   inkscape:window-width="1197"
   inkscape:window-height="750"
   id="namedview14391"
   showgrid="false"
   inkscape:zoom="0.78666667"
   inkscape:cx="346.25937"
   inkscape:cy="348.64044"
   inkscape:window-x="46"
   inkscape:window-y="57"
   inkscape:window-maximized="0"
   inkscape:current-layer="Layer_1" /><style
   type="text/css"
   id="style14321">
	.st0{fill:#CCCBCA;}
	.st1{fill:#E6E5E5;}
	.st2{fill:#353F49;}
	.st3{fill:#474F59;}
	.st4{fill:#FFFFFF;}
	.st5{fill:#0083C2;}
	.st6{fill:#92DEEB;}
</style><g
   id="g18329"
   transform="matrix(1.0765835,0,0,1.0765835,-25.338317,-126.38079)"><g
     id="g14323"><path
       id="path14325"
       d="m 25,553.7 c 20.9,9.2 44,14.3 68.4,14.3 l 413.2,0 c 24.3,0 47.5,-5.1 68.4,-14.3 l -550,0 z"
       class="st0"
       inkscape:connector-curvature="0"
       style="fill:#cccbca" /><rect
       id="rect14327"
       height="8.5"
       width="550"
       class="st1"
       y="545.20001"
       x="25"
       style="fill:#e6e5e5" /><rect
       id="rect14329"
       height="4.3000002"
       width="95.5"
       class="st0"
       y="545.20001"
       x="252.3"
       style="fill:#cccbca" /></g><path
     id="path14331"
     d="M 519.5,276.3 C 516.6,273.4 512.8,272 509,272 l -418,0 c -3.8,0 -7.6,1.4 -10.5,4.3 -2.9,2.9 -4.3,6.7 -4.3,10.5 l 0,258.3 447.7,0 0,-258.3 c -0.1,-3.8 -1.5,-7.6 -4.4,-10.5 z"
     class="st2"
     inkscape:connector-curvature="0"
     style="fill:#353f49" /><g
     id="g14333"><path
       id="path14335"
       d="m 306.3,283.4 c 0,3.5 -2.8,6.3 -6.3,6.3 -3.5,0 -6.3,-2.8 -6.3,-6.3 0,-3.5 2.8,-6.3 6.3,-6.3 3.5,0 6.3,2.8 6.3,6.3 z"
       class="st3"
       inkscape:connector-curvature="0"
       style="fill:#474f59" /><path
       id="path14337"
       d="m 302.7,283.4 c 0,1.5 -1.2,2.7 -2.7,2.7 -1.5,0 -2.7,-1.2 -2.7,-2.7 0,-1.4 1.2,-2.6 2.7,-2.6 1.5,-0.1 2.7,1.1 2.7,2.6 z"
       class="st4"
       inkscape:connector-curvature="0"
       style="fill:#ffffff" /></g><rect
     id="rect14339"
     height="250.39999"
     width="401.10001"
     class="st4"
     y="294.79999"
     x="99.5"
     style="fill:#ffffff" /></g><g
   id="g13340"
   transform="matrix(0.73856518,0,0,0.70039576,90.787587,111.07851)"><g
     transform="translate(-19.775016,16.179562)"
     id="g73"><g
       id="g75"><rect
         x="58.200001"
         y="97.800003"
         class="st2"
         width="483.70001"
         height="40.799999"
         id="rect77"
         style="fill:#353f49" /><rect
         x="58.200001"
         y="464.70001"
         class="st2"
         width="483.70001"
         height="16.4"
         id="rect79"
         style="fill:#353f49" /></g></g><g
     transform="translate(12,-2)"
     id="g13305"><g
       id="g21"
       transform="translate(-25.168207,10.786375)"><rect
         x="108.7"
         y="163.89999"
         class="st3"
         width="83.5"
         height="7.4000001"
         id="rect23"
         style="fill:#cccbca" /><rect
         x="108.7"
         y="180.2"
         class="st3"
         width="67.5"
         height="7.4000001"
         id="rect25"
         style="fill:#cccbca" /><rect
         x="108.7"
         y="196.60001"
         class="st3"
         width="134.89999"
         height="7.3000002"
         id="rect27"
         style="fill:#cccbca" /><rect
         x="108.7"
         y="212.89999"
         class="st3"
         width="58.900002"
         height="7.4000001"
         id="rect29"
         style="fill:#cccbca" /><rect
         x="108.7"
         y="229.2"
         class="st3"
         width="81.300003"
         height="7.4000001"
         id="rect31"
         style="fill:#cccbca" /><rect
         x="108.7"
         y="245.60001"
         class="st3"
         width="92.699997"
         height="7.4000001"
         id="rect33"
         style="fill:#cccbca" /><rect
         x="108.7"
         y="261.89999"
         class="st3"
         width="121.7"
         height="7.3000002"
         id="rect35"
         style="fill:#cccbca" /><rect
         x="108.7"
         y="278.29999"
         class="st3"
         width="41.700001"
         height="7.3000002"
         id="rect37"
         style="fill:#cccbca" /></g><g
       id="g57"
       transform="translate(-25.168207,10.786375)"><polygon
         class="st4"
         points="471.3,185.5 461.7,189.7 452.1,208.6 442.5,210.2 432.8,214.9 423.2,215.6 412.1,201.1 404,218.8 394.4,225.1 384.8,217.3 375.2,224.1 365.6,227.1 355.9,245.6 346.3,254.1 336.8,242.3 327.1,238.3 317.5,255.3 307.9,251.6 298.2,261.4 288.3,264.2 288.3,285.5 491.3,285.6 491.3,169.3 480.9,170.9 "
         id="polygon59"
         style="fill:#76d0de" /><polygon
         class="st5"
         points="471.3,223.2 461.7,225.8 452.1,237.5 442.5,238.6 432.8,243.3 423.2,242 412.1,236.8 404,243.9 394.4,247.9 384.8,243 375.2,247.2 365.6,249.1 355.9,260.7 346.3,266 336.8,258.6 327.1,256.1 317.5,266.8 307.9,264.5 298.2,270.5 288.3,272.2 288.3,285.6 491.3,285.6 491.3,212.7 480.9,214 "
         id="polygon61"
         style="fill:#f2f2f2" /><polygon
         class="st6"
         points="471.3,257.1 461.7,258.2 452.1,263.6 442.5,264 432.8,267.7 423.2,265.7 412.1,261.5 404,266.6 394.4,268.3 384.8,266.2 375.2,268.1 365.6,269 355.9,274.2 346.3,276.7 336.8,273.3 327.1,272.1 317.5,277 307.9,275.9 298.2,278.7 288.3,279.5 288.3,285.6 491.3,285.6 491.3,245.9 480.9,256.4 "
         id="polygon63"
         style="fill:#474f59" /></g><g
       id="g65"
       transform="translate(-25.168207,10.786375)"><path
         class="st6"
         d="m 204.1,378.6 c 0,9.5 -3.8,18.1 -10.1,24.3 l 18.6,18.7 c 10.9,-10.9 17.9,-26.2 17.9,-43 l -26.4,0 z"
         id="path67"
         inkscape:connector-curvature="0"
         style="fill:#474f59" /><path
         class="st7"
         d="m 169.6,317.6 0,26.4 c 19,0 34.5,15.4 34.5,34.5 l 26.5,0 c 0,-33.6 -27.3,-60.9 -61,-60.9 z"
         id="path69"
         inkscape:connector-curvature="0"
         style="fill:#e6e5e5" /><path
         class="st4"
         d="m 194.1,402.9 c -6.3,6.3 -14.9,10.2 -24.4,10.2 -19,0 -34.5,-15.5 -34.5,-34.5 0,-19.1 15.5,-34.5 34.5,-34.5 l 0,-26.4 c -33.6,0 -60.9,27.3 -60.9,60.9 0,33.6 27.3,60.8 60.9,60.8 16.9,0 32.1,-6.8 43.1,-17.9 l -18.7,-18.6 z"
         id="path71"
         inkscape:connector-curvature="0"
         style="fill:#76d0de" /></g><g
       transform="matrix(0.2711169,0,0,0.2711169,282.70253,306.48588)"
       id="g13202"><g
         id="g13192"><rect
           x="282.70001"
           y="122"
           transform="matrix(0.7071,-0.7071,0.7071,0.7071,-121.963,306.763)"
           class="st0"
           width="53.299999"
           height="357.29999"
           id="rect9217"
           style="fill:#0083c2" /><polygon
           class="st1"
           points="183,174.3 164.2,193.2 416.8,445.8 433.5,424.8 "
           id="polygon9219"
           style="fill:#ffffff" /><g
           id="g9221"><path
             inkscape:connector-curvature="0"
             class="st2"
             d="m 483.9,566.3 -35.5,-69.6 57,-57 69.6,35.5 c 0.4,-21.6 -7.3,-42.9 -23.3,-58.9 -32.7,-32.7 -87.5,-30.8 -122.5,4.2 -35,35 -36.9,89.8 -4.2,122.5 16,15.9 37.2,23.6 58.9,23.3 z"
             id="path9223"
             style="fill:#353f49" /><path
             inkscape:connector-curvature="0"
             class="st3"
             d="m 407.4,454.2 c -11.5,30.7 -5.8,65.4 17.6,88.7 16,16 37.2,23.6 58.8,23.3 l -35.5,-69.6 28.5,-28.5 -35.6,-35.6 -12.1,-12.1 c -9.8,10.1 -17.1,21.6 -21.7,33.8 z"
             id="path9225"
             style="fill:#cccbca" /></g><g
           id="g9227"><path
             inkscape:connector-curvature="0"
             class="st2"
             d="m 133.6,33.7 35.5,69.6 -57,57 -69.6,-35.5 c -0.4,21.6 7.3,42.9 23.3,58.8 32.7,32.7 87.5,30.8 122.5,-4.2 35,-35 36.9,-89.8 4.2,-122.5 -16,-15.8 -37.3,-23.5 -58.9,-23.2 z"
             id="path9229"
             style="fill:#353f49" /><path
             inkscape:connector-curvature="0"
             class="st3"
             d="M 112.1,160.3 42.5,124.8 c -0.4,21.6 7.3,42.9 23.3,58.8 23.4,23.4 58.1,29 88.7,17.6 12.2,-4.6 23.8,-11.8 33.7,-21.8 0,0 0,0 0,0 l -29.8,-29.8 -17.9,-17.9 -28.4,28.6 z"
             id="path9231"
             style="fill:#cccbca" /></g></g><g
         id="g9233"><polygon
           id="polygon9235"
           points="462.8,82.4 422.9,122.3 423.2,145.6 423.2,145.6 423.2,145.6 215,353.8 230.1,368.8 438.3,160.7 438.3,160.7 438.3,160.7 461.9,160.7 501.5,121.1 "
           class="st3"
           style="fill:#cccbca" /><polygon
           id="polygon9237"
           points="482.1,101.7 462.8,82.4 422.9,122.3 423.2,145.6 215,353.8 222.6,361.3 "
           class="st2"
           style="fill:#353f49" /><g
           id="g9239"><path
             inkscape:connector-curvature="0"
             id="path9241"
             d="m 247.6,377.4 c 8.7,-0.3 19.3,-4.1 25.9,-10.7 l -57.1,-57.1 c -6.6,6.6 -10.4,17.1 -10.7,25.9 -8.1,0.9 -17.5,5.3 -23.8,11.6 L 39.7,489.3 C 29.1,499.9 20.5,522.9 27.6,530 l 25.5,25.5 c 7.1,7.1 30.1,-1.5 40.7,-12.1 L 236.1,401.1 c 6.3,-6.2 10.6,-15.6 11.5,-23.7 z"
             class="st4"
             style="fill:#76d0de" /><path
             inkscape:connector-curvature="0"
             id="path9243"
             d="m 216.4,309.7 c -6.6,6.6 -10.4,17.1 -10.7,25.9 -8.1,0.9 -17.5,5.3 -23.8,11.6 L 39.7,489.3 C 29.1,499.9 20.5,522.9 27.6,530 L 40.4,542.8 245,338.2 216.4,309.7 Z"
             class="st5"
             style="fill:#f2f2f2" /></g></g></g></g></g>
</svg>