<?xml version="1.0" encoding="utf-8"?>
<!-- Generator: Adobe Illustrator 19.1.0, SVG Export Plug-In . SVG Version: 6.00 Build 0)  -->
<svg version="1.1" id="Layer_1" xmlns="http://www.w3.org/2000/svg" xmlns:xlink="http://www.w3.org/1999/xlink" x="0px" y="0px"
	 viewBox="0 0 600 600" style="enable-background:new 0 0 600 600;" xml:space="preserve">
<style type="text/css">
	.st0{fill:#BABABA;}
	.st1{fill:#005E9B;}
	.st2{fill:#0083C2;}
	.st3{fill:#4D6166;}
	.st4{fill:#FFFFFF;}
	.st5{fill:#ACDAE9;}
</style>
<path class="st0" d="M575,439c0,10.3-8.4,18.7-18.7,18.7H43.7c-10.3,0-18.7-8.4-18.7-18.7V69.3c0-10.3,8.4-18.7,18.7-18.7h512.6
	c10.3,0,18.7,8.4,18.7,18.7V439z"/>
<path class="st1" d="M25,377V439c0,10.3,8.4,18.7,18.7,18.7h512.6c10.3,0,18.7-8.4,18.7-18.7V377H25z"/>
<rect x="43.8" y="69.8" class="st2" width="511.6" height="289.5"/>
<rect x="191.2" y="535" class="st0" width="225" height="14.4"/>
<polygon class="st0" points="392.9,535 215.5,535 223.3,457.8 385.1,457.8 "/>
<polygon class="st3" points="388.8,494.6 219.6,494.6 223.3,457.8 385.1,457.8 "/>
<g>
	<polygon class="st4" points="380.5,208.4 262.7,181.5 289.6,299.3 319.2,269.6 365.9,316.3 397.5,284.7 350.8,238.1 	"/>
	<polygon class="st5" points="262.7,181.5 381.7,300.5 397.5,284.7 350.8,238.1 380.5,208.4 	"/>
</g>
<g>
	<path class="st4" d="M251.5,250.4c-4-0.6-7.9-1.6-11.8-3l9.2-26.5c2.3,0.8,4.6,1.4,7,1.8L251.5,250.4z M330.9,168.5l-27.6,5.3
		c-0.4-2.3-1.1-4.7-2-7l26-10.6l0.2,0.6C329,160.7,330.1,164.6,330.9,168.5z M197.4,206.5l-0.1-0.3c-1.4-3.7-2.5-7.5-3.2-11.3
		l27.6-5.4c0.4,2.3,1.1,4.6,1.9,6.8L197.4,206.5z M275.7,142.2c-2.3-0.8-4.7-1.4-7-1.7l4.3-27.8c4,0.6,8,1.6,11.8,2.9L275.7,142.2z
		 M230,155.5l-21.9-17.6c2.5-3.1,5.3-6.1,8.4-8.7l18.5,21.1C233.2,151.8,231.5,153.6,230,155.5z"/>
</g>
</svg>
