<?xml version="1.0" encoding="utf-8"?>
<!-- Generator: Adobe Illustrator 19.1.0, SVG Export Plug-In . SVG Version: 6.00 Build 0)  -->
<svg version="1.1" id="Layer_1" xmlns="http://www.w3.org/2000/svg" xmlns:xlink="http://www.w3.org/1999/xlink" x="0px" y="0px"
	 viewBox="0 0 600 600" style="enable-background:new 0 0 600 600;" xml:space="preserve">
<style type="text/css">
	.st0{fill:#CCCBCA;}
	.st1{fill:#E6E5E5;}
	.st2{fill:#353F49;}
	.st3{fill:#474F59;}
	.st4{fill:#FFFFFF;}
	.st5{fill:#0083C2;}
	.st6{fill:#92DEEB;}
</style>
<g>
	<path class="st0" d="M25,553.7c20.9,9.2,44,14.3,68.4,14.3h413.2c24.3,0,47.5-5.1,68.4-14.3H25z"/>
	<rect x="25" y="545.2" class="st1" width="550" height="8.5"/>
	<rect x="252.3" y="545.2" class="st0" width="95.5" height="4.3"/>
</g>
<path class="st2" d="M519.5,276.3c-2.9-2.9-6.7-4.3-10.5-4.3H91c-3.8,0-7.6,1.4-10.5,4.3c-2.9,2.9-4.3,6.7-4.3,10.5v258.3h447.7
	V286.8C523.8,283,522.4,279.2,519.5,276.3z"/>
<g>
	<path class="st3" d="M306.3,283.4c0,3.5-2.8,6.3-6.3,6.3c-3.5,0-6.3-2.8-6.3-6.3c0-3.5,2.8-6.3,6.3-6.3
		C303.5,277.1,306.3,279.9,306.3,283.4z"/>
	<path class="st4" d="M302.7,283.4c0,1.5-1.2,2.7-2.7,2.7c-1.5,0-2.7-1.2-2.7-2.7c0-1.4,1.2-2.6,2.7-2.6
		C301.5,280.7,302.7,281.9,302.7,283.4z"/>
</g>
<rect x="99.5" y="294.8" class="st4" width="401.1" height="250.4"/>
<g>
	<path class="st1" d="M300,323.8c-26.1,0-47.3,21.2-47.3,47.3v28.1h15.2v-28.1c0-17.7,14.4-32.1,32.2-32.1
		c17.7,0,32.2,14.4,32.2,32.1v28.1h15.2v-28.1C347.3,345,326.1,323.8,300,323.8z"/>
	<rect x="235.2" y="399.2" class="st5" width="129.7" height="96.3"/>
	<rect x="235.2" y="495.5" class="st2" width="129.7" height="20.6"/>
	<rect x="247" y="433.6" class="st4" width="106.1" height="27.5"/>
	<g>
		<g>
			<g>
				<path class="st2" d="M264.1,452.2c-2.7,0-4.8-2.2-4.8-4.8c0-2.7,2.2-4.8,4.8-4.8c2.7,0,4.8,2.2,4.8,4.8
					C269,450,266.8,452.2,264.1,452.2z"/>
			</g>
			<g>
				<path class="st2" d="M282.1,452.2c-2.7,0-4.8-2.2-4.8-4.8c0-2.7,2.2-4.8,4.8-4.8c2.7,0,4.8,2.2,4.8,4.8
					C286.9,450,284.7,452.2,282.1,452.2z"/>
			</g>
			<g>
				<path class="st2" d="M300,452.2c-2.7,0-4.8-2.2-4.8-4.8c0-2.7,2.2-4.8,4.8-4.8c2.7,0,4.8,2.2,4.8,4.8
					C304.8,450,302.7,452.2,300,452.2z"/>
			</g>
			<g>
				<path class="st2" d="M317.9,452.2c-2.7,0-4.8-2.2-4.8-4.8c0-2.7,2.2-4.8,4.8-4.8c2.6,0,4.8,2.2,4.8,4.8
					C322.8,450,320.6,452.2,317.9,452.2z"/>
			</g>
			<g>
				<path class="st2" d="M335.8,452.2c-2.7,0-4.8-2.2-4.8-4.8c0-2.7,2.2-4.8,4.8-4.8c2.7,0,4.8,2.2,4.8,4.8
					C340.7,450,338.5,452.2,335.8,452.2z"/>
			</g>
		</g>
	</g>
</g>
<g>
	<path class="st2" d="M468.6,568c-8.3,0-15-6.7-15-15V367.8c0-8.3,6.8-15,15-15h87.1c8.3,0,15,6.8,15,15V553c0,8.3-6.7,15-15,15
		H468.6z"/>
	<path class="st3" d="M525.2,552.5c0,2-1.6,3.6-3.6,3.6h-18.8c-2,0-3.6-1.6-3.6-3.6V551c0-2,1.6-3.6,3.6-3.6h18.8
		c2,0,3.6,1.6,3.6,3.6V552.5z"/>
	<path class="st3" d="M527.9,369.3c0,0.8-0.6,1.5-1.5,1.5h-28.5c-0.8,0-1.4-0.6-1.4-1.5v-0.6c0-0.8,0.6-1.5,1.4-1.5h28.5
		c0.8,0,1.5,0.7,1.5,1.5V369.3z"/>
	<rect x="462.1" y="385.3" class="st4" width="100.1" height="150.2"/>
	<g>
		<path class="st6" d="M552.2,460.4c0,22.1-17.9,40-40,40c-22.1,0-40-17.9-40-40c0-22.1,17.9-40,40-40
			C534.3,420.4,552.2,438.3,552.2,460.4z"/>
		<polygon class="st4" points="490.3,460.7 494.5,456.6 506.1,468.1 529.9,444.4 534,448.5 506.1,476.4 		"/>
	</g>
</g>
</svg>
